<?xml version="1.0" encoding="utf-8"?>
<!-- Generator: Adobe Illustrator 21.0.0, SVG Export Plug-In . SVG Version: 6.00 Build 0)  -->
<svg version="1.1" id="Layer_1" xmlns="http://www.w3.org/2000/svg" xmlns:xlink="http://www.w3.org/1999/xlink" x="0px" y="0px"
	 viewBox="0 0 300 83.9" style="enable-background:new 0 0 300 83.9;" xml:space="preserve">
<style type="text/css">
	.st0{fill:url(#SVGID_1_);}
	.st1{fill:#FFFFFF;}
</style>
<linearGradient id="SVGID_1_" gradientUnits="userSpaceOnUse" x1="0" y1="72.2142" x2="300" y2="72.2142">
	<stop  offset="0" style="stop-color:#FFFFFF;stop-opacity:0"/>
	<stop  offset="0.15" style="stop-color:#FFFFFF;stop-opacity:0"/>
	<stop  offset="0.4" style="stop-color:#FFFFFF"/>
	<stop  offset="1" style="stop-color:#FFFFFF"/>
</linearGradient>
<path class="st0" d="M0.4,82.9c-0.3,0.1-0.4,0.4-0.3,0.6c0.1,0.3,0.3,0.4,0.6,0.4C49.1,75.3,99,70.8,150,70.8
	c51,0,100.9,4.5,149.4,13.1c0.3,0,0.5-0.1,0.6-0.4c0.1-0.3-0.1-0.6-0.3-0.6C252.3,68.4,202.1,60.6,150,60.6
	C97.9,60.6,47.7,68.4,0.4,82.9"/>
<g>
	<path class="st1" d="M60.6,0c-2.3,5.9-4.8,11.9-7.4,17.9l-3.5,8l-3.5-8c-2.7-6-5.2-12-7.6-17.9H19.3v1.6c2.2,0,3.9,1.8,3.9,4
		c-0.3,4.1-0.7,8.2-1.1,12.3l-1.3,12.5c-0.6,6-1.3,12-2.2,17.9h6.2c0.4-5.9,0.9-11.9,1.5-17.9l1.9-18.9c2.8,5.7,5.4,11.5,8,17.3
		l0.7,1.6c2.7,6,5.2,12,7.6,17.9h1.9c2.3-5.9,4.8-11.9,7.4-17.9l1.1-2.6c2.5-5.8,5.1-11.6,7.8-17.3l2,19.9c0.6,6,1.1,12,1.5,17.9
		h14.3c-0.8-5.9-1.6-11.9-2.2-17.9l-1.3-12.5c-0.6-6-1.1-12-1.5-17.9H60.6z"/>
	<path class="st1" d="M124.7,43.5c1.6-3,3.2-6,5-9l17.3-28.9V4.5h-38.2v8.9l1.5,0c0-2.1,1.6-3.9,3.7-4c1.2,0,2.4-0.1,3.6-0.1H130
		c-1.5,2.9-3.2,5.8-4.9,8.8l-17.4,29.1v1.2h41.2v-5.2c-2.9,0.2-5.8,0.4-8.8,0.4H124.7z"/>
	<path class="st1" d="M195.3,48.3c0.1,0,0.3,0,0.4,0c-0.2-3-0.4-5.9-0.4-8.9V28.5h17.1v10.9c0,3-0.1,6-0.3,8.9h13.1
		c-0.2-3-0.3-5.9-0.3-8.9V13.4c0-3,0.1-6,0.3-9h-16.7v1.4h0.4c1.9,0,3.4,1.5,3.5,3.3c0,1.4,0.1,2.8,0.1,4.2v10.3h-17.1V13.4
		c0-3,0.1-6,0.4-9h-16.7v1.4h0.3c1.9,0,3.4,1.5,3.5,3.3c0.1,1.4,0.1,2.8,0.1,4.2v30.4c-1.7,0.2-3.5,0.3-5.3,0.3
		c-1.9,0-3.8-0.1-5.7-0.5c-5.3-1-6.1-5.9-6.1-9V13.2c0-2.9,0.1-5.8,0.3-8.7h-16.7v1.4h0.4c1.8,0,3.4,1.5,3.5,3.3
		c0,1.4,0.1,2.8,0.1,4.2v19.1c0,4.3,1.4,13.8,13,15.6c3.7,0.5,7.4,0.8,11.2,0.8C183.5,48.9,189.4,48.7,195.3,48.3"/>
	<path class="st1" d="M281.3,26.4L281.3,26.4c0,14.9-12.9,22.5-25.6,22.5c-12.7,0-25.6-7.6-25.6-22.5c0-14.9,12.9-22.5,25.6-22.5
		C268.4,3.9,281.3,11.5,281.3,26.4 M268.8,26.4c0-8.1-3.4-17.7-13.1-17.7c-9.7,0-13.1,9.6-13.1,17.7c0,8.1,3.4,17.7,13.1,17.7
		C265.4,44.1,268.8,34.5,268.8,26.4"/>
	<path class="st1" d="M101.7,13.4c0-3,0.1-6,0.3-9H84.9V6h0.4c2.2,0,3.9,1.8,3.9,4c0,1.1,0.1,2.2,0.1,3.4v25.9c0,3-0.1,6-0.3,8.9
		H102c-0.2-3-0.3-5.9-0.3-8.9V13.4z"/>
</g>
</svg>
